<svg width="52" height="42" viewBox="0 0 52 42" fill="none" xmlns="http://www.w3.org/2000/svg">
<path id="button" d="M2.00179 0.0668519C2.13179 0.0996644 13.2671 4.58185 26.7505 10.0287C49.273 19.1244 51.2799 19.9381 51.4668 20.089C51.7024 20.2761 51.8365 20.4729 51.938 20.7814C52.0071 20.9914 52.0071 21.0111 51.938 21.2211C51.8405 21.5262 51.6943 21.7428 51.4668 21.92C51.2962 22.0545 48.5012 23.1898 26.7221 31.9836C11.3212 38.2015 2.07492 41.9192 1.91242 41.9553C1.69304 42.0012 1.62804 42.0045 1.41273 41.9684C0.685543 41.8437 0.246793 41.5025 0.0517927 40.9086C-0.0172698 40.6986 -0.0172698 40.6789 0.0517927 40.4689C0.0883552 40.3508 0.157418 40.1933 0.206168 40.1211C0.250855 40.0489 3.79742 35.7373 8.09148 30.5365C13.2712 24.2661 15.8996 21.057 15.8996 21.0012C15.8996 20.9454 13.2712 17.7364 8.09148 11.4659C3.79742 6.26513 0.250855 1.95357 0.206168 1.88138C0.157418 1.8092 0.0883552 1.6517 0.0517927 1.53357C-0.0172698 1.32357 -0.0172698 1.30388 0.0517927 1.09388C0.238668 0.526227 0.612418 0.214508 1.30304 0.0537269C1.58336 -0.0118981 1.69711 -0.00861685 2.00179 0.0668519Z" fill="black"/>
</svg>
